<svg xmlns="http://www.w3.org/2000/svg" width="1280" height="938" fill="none"><path fill="url(#a)" d="M-340 0h1920v938H-340z"/><path fill="url(#b)" d="M-339.715 0C-339.715 93-89 21.96-89 221c0 199.041 32.5 283 490.5 283 265.475 0 333.702 95.602 398.635 186.589C859.089 773.197 915.327 852 1114 852c196.67 0 260.36-92.001 322.25-181.394 38.27-55.278 75.85-109.559 143.75-140.474V0H-339.715Z"/><path fill="url(#c)" d="M-339.502 0H-340v468l.498-468Z"/><path fill="url(#d)" d="M1402.74 682.856c47.67-60.539 95.95-121.862 177.26-154.626v1.902c-67.9 30.915-105.48 85.196-143.75 140.474C1374.36 760 1310.67 852 1114 852c155.55 0 221.53-83.792 288.74-169.144Z"/><path fill="url(#e)" d="M-89 221c0 169.041 32.5 253 490.5 253 273.091 0 351.263 109.887 423.31 211.165C886.389 771.727 943.494 852 1114 852c-198.673 0-254.911-78.803-313.865-161.411C735.202 599.602 666.975 504 401.5 504-56.5 504-89 420.041-89 221Z"/><path fill="url(#f)" d="m-340 468 .493-463.473c3.208 34.118 43.143 44.474 90.222 56.682C-177.456 79.836-89 102.773-89 221c0-137.709-85.279-166.193-182.851-198.782-8.017-2.678-16.183-5.123-24.409-7.586C-310.812 10.275-325.553 5.862-340 0v468Z"/><path fill="url(#g)" d="M-360 0h1920v938H-360z"/><defs><linearGradient id="a" x1="-340" x2="1580" y1="674" y2="674" gradientUnits="userSpaceOnUse"><stop stop-color="#F0F0F0"/><stop offset="1" stop-color="#D4D4D4"/></linearGradient><linearGradient id="b" x1="-104" x2="887.82" y1="739.5" y2="121.728" gradientUnits="userSpaceOnUse"><stop offset=".182" stop-color="#D3D3D3"/><stop offset="1" stop-color="#F0F0F0"/></linearGradient><linearGradient id="c" x1="-104" x2="887.82" y1="739.5" y2="121.728" gradientUnits="userSpaceOnUse"><stop offset=".182" stop-color="#D3D3D3"/><stop offset="1" stop-color="#F0F0F0"/></linearGradient><linearGradient id="d" x1="-104" x2="887.82" y1="739.5" y2="121.728" gradientUnits="userSpaceOnUse"><stop offset=".182" stop-color="#D1D1D1"/><stop offset="1" stop-color="#CFCFCF"/></linearGradient><linearGradient id="e" x1="-104" x2="887.82" y1="739.5" y2="121.728" gradientUnits="userSpaceOnUse"><stop offset=".182" stop-color="#D1D1D1"/><stop offset="1" stop-color="#CFCFCF"/></linearGradient><linearGradient id="f" x1="-104" x2="887.82" y1="739.5" y2="121.728" gradientUnits="userSpaceOnUse"><stop offset=".182" stop-color="#D1D1D1"/><stop offset="1" stop-color="#CFCFCF"/></linearGradient><linearGradient id="g" x1="600" x2="600" y1="0" y2="938" gradientUnits="userSpaceOnUse"><stop stop-color="#DEEDFF" stop-opacity=".6"/><stop offset="1" stop-color="#A6CCFA" stop-opacity=".5"/></linearGradient></defs></svg>